# Blender 4.5.2 LTS
# www.blender.org
mtllib NEWTRYGGVICUBE.mtl
o Plane
v 1.000000 3.349907 -1.000000
v -1.000000 3.349907 -1.000000
v 1.000000 3.349907 1.000000
v -1.000000 3.349907 1.000000
v 0.756782 3.349907 0.756782
v 0.756782 3.349907 -0.756782
v -0.756782 3.349907 -0.756782
v -0.756782 3.349907 0.756782
v 0.663959 3.220515 0.663959
v 0.663959 3.220515 -0.663959
v -0.663959 3.220515 -0.663959
v -0.663959 3.220515 0.663959
v 0.756782 3.220515 0.756782
v 0.756782 3.220515 -0.756782
v -0.756782 3.220515 -0.756782
v -0.756782 3.220515 0.756782
v 0.599246 3.096291 0.599246
v 0.599246 3.096291 -0.599246
v -0.599246 3.096291 -0.599246
v -0.599246 3.096291 0.599246
v 0.663959 3.096291 0.663959
v 0.663959 3.096291 -0.663959
v -0.663959 3.096291 -0.663959
v -0.663959 3.096291 0.663959
v 0.544645 2.957120 0.544645
v 0.544645 2.957120 -0.544645
v -0.544645 2.957120 -0.544645
v -0.544645 2.957120 0.544645
v 0.599246 2.957120 0.599246
v 0.599246 2.957120 -0.599246
v -0.599246 2.957120 -0.599246
v -0.599246 2.957120 0.599246
vn -0.0000 -0.0000 1.0000
vn -0.0000 1.0000 -0.0000
vn 1.0000 -0.0000 -0.0000
vn -1.0000 -0.0000 -0.0000
vn -0.0000 -0.0000 -1.0000
vt 0.121609 0.121609
vt 0.878391 0.121609
vt 0.121609 0.878391
vt 0.000000 1.000000
vt 0.000000 0.000000
vt 1.000000 0.000000
vt 0.878391 0.878391
vt 1.000000 1.000000
vt 0.831980 0.168021
vt 0.831980 0.831980
vt 0.168021 0.168021
vt 0.168021 0.831980
vt 0.799623 0.200377
vt 0.799623 0.799623
vt 0.200377 0.200377
vt 0.200377 0.799623
vt 0.227678 0.227678
vt 0.772322 0.227678
vt 0.772322 0.772322
vt 0.227678 0.772322
s 1
usemtl Material.006
f 6/1/1 7/2/1 15/2/1 14/1/1
f 6/1/2 5/3/2 3/4/2 1/5/2
f 7/2/2 6/1/2 1/5/2 2/6/2
f 8/7/2 7/2/2 2/6/2 4/8/2
f 5/3/2 8/7/2 4/8/2 3/4/2
f 11/9/3 12/10/3 24/10/3 23/9/3
f 7/2/3 8/7/3 16/7/3 15/2/3
f 5/3/4 6/1/4 14/1/4 13/3/4
f 8/7/5 5/3/5 13/3/5 16/7/5
f 10/11/2 9/12/2 13/3/2 14/1/2
f 11/9/2 10/11/2 14/1/2 15/2/2
f 12/10/2 11/9/2 15/2/2 16/7/2
f 9/12/2 12/10/2 16/7/2 13/3/2
f 19/13/3 20/14/3 32/14/3 31/13/3
f 9/12/4 10/11/4 22/11/4 21/12/4
f 12/10/5 9/12/5 21/12/5 24/10/5
f 10/11/1 11/9/1 23/9/1 22/11/1
f 18/15/2 17/16/2 21/12/2 22/11/2
f 19/13/2 18/15/2 22/11/2 23/9/2
f 20/14/2 19/13/2 23/9/2 24/10/2
f 17/16/2 20/14/2 24/10/2 21/12/2
f 26/17/2 27/18/2 28/19/2 25/20/2
f 17/16/4 18/15/4 30/15/4 29/16/4
f 20/14/5 17/16/5 29/16/5 32/14/5
f 18/15/1 19/13/1 31/13/1 30/15/1
f 26/17/2 25/20/2 29/16/2 30/15/2
f 27/18/2 26/17/2 30/15/2 31/13/2
f 28/19/2 27/18/2 31/13/2 32/14/2
f 25/20/2 28/19/2 32/14/2 29/16/2
o Plane.001
v 1.000000 1.349907 1.000000
v 1.000000 3.349906 1.000000
v -1.000000 1.349907 1.000000
v -1.000000 3.349906 1.000000
v -0.756782 1.593124 1.000000
v 0.756782 1.593124 1.000000
v 0.756782 3.106689 1.000000
v -0.756782 3.106689 1.000000
v -0.663959 1.685948 0.870609
v 0.663959 1.685948 0.870609
v 0.663959 3.013865 0.870609
v -0.663959 3.013865 0.870609
v -0.756782 1.593124 0.870609
v 0.756782 1.593124 0.870609
v 0.756782 3.106689 0.870609
v -0.756782 3.106689 0.870609
v -0.599246 1.750660 0.746384
v 0.599246 1.750660 0.746384
v 0.599246 2.949153 0.746384
v -0.599246 2.949153 0.746384
v -0.663959 1.685948 0.746384
v 0.663959 1.685948 0.746384
v 0.663959 3.013865 0.746384
v -0.663959 3.013865 0.746384
v -0.544645 1.805262 0.607213
v 0.544644 1.805262 0.607214
v 0.544645 2.894551 0.607214
v -0.544644 2.894551 0.607213
v -0.599246 1.750660 0.607213
v 0.599246 1.750660 0.607214
v 0.599246 2.949153 0.607214
v -0.599246 2.949153 0.607213
vn -1.0000 -0.0000 -0.0000
vn -0.0000 -0.0000 1.0000
vn -0.0000 -1.0000 -0.0000
vn -0.0000 1.0000 -0.0000
vn 1.0000 -0.0000 -0.0000
vt 0.121609 0.121609
vt 0.878391 0.121609
vt 0.121609 0.878391
vt 0.000000 1.000000
vt 0.000000 0.000000
vt 1.000000 0.000000
vt 0.878391 0.878391
vt 1.000000 1.000000
vt 0.831980 0.168021
vt 0.831980 0.831980
vt 0.168021 0.168021
vt 0.168021 0.831980
vt 0.799623 0.200377
vt 0.799623 0.799623
vt 0.200377 0.200377
vt 0.200377 0.799623
vt 0.227678 0.227678
vt 0.772322 0.227678
vt 0.772322 0.772322
vt 0.227678 0.772322
s 1
usemtl Material.005
f 38/21/6 39/22/6 47/22/6 46/21/6
f 38/21/7 37/23/7 35/24/7 33/25/7
f 39/22/7 38/21/7 33/25/7 34/26/7
f 40/27/7 39/22/7 34/26/7 36/28/7
f 37/23/7 40/27/7 36/28/7 35/24/7
f 43/29/8 44/30/8 56/30/8 55/29/8
f 39/22/8 40/27/8 48/27/8 47/22/8
f 37/23/9 38/21/9 46/21/9 45/23/9
f 40/27/10 37/23/10 45/23/10 48/27/10
f 42/31/7 41/32/7 45/23/7 46/21/7
f 43/29/7 42/31/7 46/21/7 47/22/7
f 44/30/7 43/29/7 47/22/7 48/27/7
f 41/32/7 44/30/7 48/27/7 45/23/7
f 51/33/8 52/34/8 64/34/8 63/33/8
f 41/32/9 42/31/9 54/31/9 53/32/9
f 44/30/10 41/32/10 53/32/10 56/30/10
f 42/31/6 43/29/6 55/29/6 54/31/6
f 50/35/7 49/36/7 53/32/7 54/31/7
f 51/33/7 50/35/7 54/31/7 55/29/7
f 52/34/7 51/33/7 55/29/7 56/30/7
f 49/36/7 52/34/7 56/30/7 53/32/7
f 58/37/7 59/38/7 60/39/7 57/40/7
f 49/36/9 50/35/9 62/35/9 61/36/9
f 52/34/10 49/36/10 61/36/10 64/34/10
f 50/35/6 51/33/6 63/33/6 62/35/6
f 58/37/7 57/40/7 61/36/7 62/35/7
f 59/38/7 58/37/7 62/35/7 63/33/7
f 60/39/7 59/38/7 63/33/7 64/34/7
f 57/40/7 60/39/7 64/34/7 61/36/7
o Plane.002
v -1.000000 1.349907 1.000000
v -1.000000 3.349907 1.000000
v -1.000000 1.349907 -1.000000
v -1.000000 3.349907 -1.000000
v -1.000000 1.593124 -0.756782
v -1.000000 1.593124 0.756782
v -1.000000 3.106689 0.756782
v -1.000000 3.106689 -0.756782
v -0.870609 1.685948 -0.663959
v -0.870609 1.685948 0.663959
v -0.870609 3.013865 0.663959
v -0.870609 3.013865 -0.663959
v -0.870609 1.593124 -0.756782
v -0.870609 1.593124 0.756782
v -0.870609 3.106689 0.756782
v -0.870609 3.106689 -0.756782
v -0.746384 1.750661 -0.599246
v -0.746384 1.750661 0.599246
v -0.746384 2.949153 0.599246
v -0.746384 2.949153 -0.599246
v -0.746384 1.685948 -0.663959
v -0.746384 1.685948 0.663959
v -0.746384 3.013865 0.663959
v -0.746384 3.013865 -0.663959
v -0.607214 1.805262 -0.544645
v -0.607214 1.805262 0.544645
v -0.607213 2.894551 0.544645
v -0.607213 2.894551 -0.544645
v -0.607214 1.750661 -0.599246
v -0.607214 1.750661 0.599246
v -0.607213 2.949153 0.599246
v -0.607213 2.949153 -0.599246
vn -0.0000 -0.0000 -1.0000
vn -1.0000 -0.0000 -0.0000
vn -0.0000 -1.0000 -0.0000
vn -0.0000 1.0000 -0.0000
vn -0.0000 -0.0000 1.0000
vt 0.121609 0.121609
vt 0.878391 0.121609
vt 0.121609 0.878391
vt 0.000000 1.000000
vt 0.000000 0.000000
vt 1.000000 0.000000
vt 0.878391 0.878391
vt 1.000000 1.000000
vt 0.831980 0.168021
vt 0.831980 0.831980
vt 0.168021 0.168021
vt 0.168021 0.831980
vt 0.799623 0.200377
vt 0.799623 0.799623
vt 0.200377 0.200377
vt 0.200377 0.799623
vt 0.227678 0.227678
vt 0.772322 0.227678
vt 0.772322 0.772322
vt 0.227678 0.772322
s 1
usemtl Material.004
f 70/41/11 71/42/11 79/42/11 78/41/11
f 70/41/12 69/43/12 67/44/12 65/45/12
f 71/42/12 70/41/12 65/45/12 66/46/12
f 72/47/12 71/42/12 66/46/12 68/48/12
f 69/43/12 72/47/12 68/48/12 67/44/12
f 75/49/13 76/50/13 88/50/13 87/49/13
f 71/42/13 72/47/13 80/47/13 79/42/13
f 69/43/14 70/41/14 78/41/14 77/43/14
f 72/47/15 69/43/15 77/43/15 80/47/15
f 74/51/12 73/52/12 77/43/12 78/41/12
f 75/49/12 74/51/12 78/41/12 79/42/12
f 76/50/12 75/49/12 79/42/12 80/47/12
f 73/52/12 76/50/12 80/47/12 77/43/12
f 83/53/13 84/54/13 96/54/13 95/53/13
f 73/52/14 74/51/14 86/51/14 85/52/14
f 76/50/15 73/52/15 85/52/15 88/50/15
f 74/51/11 75/49/11 87/49/11 86/51/11
f 82/55/12 81/56/12 85/52/12 86/51/12
f 83/53/12 82/55/12 86/51/12 87/49/12
f 84/54/12 83/53/12 87/49/12 88/50/12
f 81/56/12 84/54/12 88/50/12 85/52/12
f 90/57/12 91/58/12 92/59/12 89/60/12
f 81/56/14 82/55/14 94/55/14 93/56/14
f 84/54/15 81/56/15 93/56/15 96/54/15
f 82/55/11 83/53/11 95/53/11 94/55/11
f 90/57/12 89/60/12 93/56/12 94/55/12
f 91/58/12 90/57/12 94/55/12 95/53/12
f 92/59/12 91/58/12 95/53/12 96/54/12
f 89/60/12 92/59/12 96/54/12 93/56/12
o Plane.003
v -1.000000 1.349907 -1.000000
v 1.000000 1.349907 -1.000000
v -1.000000 1.349907 1.000000
v 1.000000 1.349907 1.000000
v -0.756782 1.349907 0.756782
v -0.756782 1.349907 -0.756782
v 0.756782 1.349907 -0.756782
v 0.756782 1.349907 0.756782
v -0.663959 1.479298 0.663959
v -0.663959 1.479298 -0.663959
v 0.663959 1.479298 -0.663959
v 0.663959 1.479298 0.663959
v -0.756782 1.479298 0.756782
v -0.756782 1.479298 -0.756782
v 0.756782 1.479298 -0.756782
v 0.756782 1.479298 0.756782
v -0.599246 1.603523 0.599246
v -0.599246 1.603523 -0.599246
v 0.599246 1.603523 -0.599246
v 0.599246 1.603523 0.599246
v -0.663959 1.603523 0.663959
v -0.663959 1.603523 -0.663959
v 0.663959 1.603523 -0.663959
v 0.663959 1.603523 0.663959
v -0.544645 1.742693 0.544645
v -0.544645 1.742693 -0.544645
v 0.544645 1.742693 -0.544645
v 0.544645 1.742693 0.544645
v -0.599246 1.742693 0.599246
v -0.599246 1.742693 -0.599246
v 0.599246 1.742693 -0.599246
v 0.599246 1.742693 0.599246
vn -0.0000 -0.0000 1.0000
vn -0.0000 -1.0000 -0.0000
vn -1.0000 -0.0000 -0.0000
vn 1.0000 -0.0000 -0.0000
vn -0.0000 -0.0000 -1.0000
vt 0.121609 0.121609
vt 0.878391 0.121609
vt 0.121609 0.878391
vt 0.000000 1.000000
vt 0.000000 0.000000
vt 1.000000 0.000000
vt 0.878391 0.878391
vt 1.000000 1.000000
vt 0.831980 0.168021
vt 0.831980 0.831980
vt 0.168021 0.168021
vt 0.168021 0.831980
vt 0.799623 0.200377
vt 0.799623 0.799623
vt 0.200377 0.200377
vt 0.200377 0.799623
vt 0.227678 0.227678
vt 0.772322 0.227678
vt 0.772322 0.772322
vt 0.227678 0.772322
s 1
usemtl Material.003
f 102/61/16 103/62/16 111/62/16 110/61/16
f 102/61/17 101/63/17 99/64/17 97/65/17
f 103/62/17 102/61/17 97/65/17 98/66/17
f 104/67/17 103/62/17 98/66/17 100/68/17
f 101/63/17 104/67/17 100/68/17 99/64/17
f 107/69/18 108/70/18 120/70/18 119/69/18
f 103/62/18 104/67/18 112/67/18 111/62/18
f 101/63/19 102/61/19 110/61/19 109/63/19
f 104/67/20 101/63/20 109/63/20 112/67/20
f 106/71/17 105/72/17 109/63/17 110/61/17
f 107/69/17 106/71/17 110/61/17 111/62/17
f 108/70/17 107/69/17 111/62/17 112/67/17
f 105/72/17 108/70/17 112/67/17 109/63/17
f 115/73/18 116/74/18 128/74/18 127/73/18
f 105/72/19 106/71/19 118/71/19 117/72/19
f 108/70/20 105/72/20 117/72/20 120/70/20
f 106/71/16 107/69/16 119/69/16 118/71/16
f 114/75/17 113/76/17 117/72/17 118/71/17
f 115/73/17 114/75/17 118/71/17 119/69/17
f 116/74/17 115/73/17 119/69/17 120/70/17
f 113/76/17 116/74/17 120/70/17 117/72/17
f 122/77/17 123/78/17 124/79/17 121/80/17
f 113/76/19 114/75/19 126/75/19 125/76/19
f 116/74/20 113/76/20 125/76/20 128/74/20
f 114/75/16 115/73/16 127/73/16 126/75/16
f 122/77/17 121/80/17 125/76/17 126/75/17
f 123/78/17 122/77/17 126/75/17 127/73/17
f 124/79/17 123/78/17 127/73/17 128/74/17
f 121/80/17 124/79/17 128/74/17 125/76/17
o Plane.004
v 1.000000 1.349907 -1.000000
v 1.000000 3.349907 -1.000000
v 1.000000 1.349907 1.000000
v 1.000000 3.349906 1.000000
v 1.000000 1.593124 0.756782
v 1.000000 1.593124 -0.756782
v 1.000000 3.106689 -0.756782
v 1.000000 3.106689 0.756782
v 0.870609 1.685948 0.663959
v 0.870609 1.685948 -0.663959
v 0.870609 3.013866 -0.663959
v 0.870609 3.013865 0.663959
v 0.870609 1.593124 0.756782
v 0.870609 1.593124 -0.756782
v 0.870609 3.106689 -0.756782
v 0.870609 3.106689 0.756782
v 0.746384 1.750660 0.599246
v 0.746384 1.750661 -0.599246
v 0.746384 2.949153 -0.599246
v 0.746384 2.949153 0.599246
v 0.746384 1.685948 0.663959
v 0.746384 1.685948 -0.663959
v 0.746384 3.013866 -0.663959
v 0.746384 3.013865 0.663959
v 0.607213 1.805262 0.544644
v 0.607213 1.805262 -0.544645
v 0.607214 2.894551 -0.544644
v 0.607214 2.894551 0.544645
v 0.607213 1.750660 0.599246
v 0.607213 1.750661 -0.599246
v 0.607214 2.949153 -0.599246
v 0.607214 2.949153 0.599246
vn -0.0000 -0.0000 1.0000
vn 1.0000 -0.0000 -0.0000
vn -0.0000 -1.0000 -0.0000
vn -0.0000 1.0000 -0.0000
vn -0.0000 -0.0000 -1.0000
vt 0.121609 0.121609
vt 0.878391 0.121609
vt 0.121609 0.878391
vt 0.000000 1.000000
vt 0.000000 0.000000
vt 1.000000 0.000000
vt 0.878391 0.878391
vt 1.000000 1.000000
vt 0.831980 0.168021
vt 0.831980 0.831980
vt 0.168021 0.168021
vt 0.168021 0.831980
vt 0.799623 0.200377
vt 0.799623 0.799623
vt 0.200377 0.200377
vt 0.200377 0.799623
vt 0.227678 0.227678
vt 0.772322 0.227678
vt 0.772322 0.772322
vt 0.227678 0.772322
s 1
usemtl Material.001
f 134/81/21 135/82/21 143/82/21 142/81/21
f 134/81/22 133/83/22 131/84/22 129/85/22
f 135/82/22 134/81/22 129/85/22 130/86/22
f 136/87/22 135/82/22 130/86/22 132/88/22
f 133/83/22 136/87/22 132/88/22 131/84/22
f 139/89/23 140/90/23 152/90/23 151/89/23
f 135/82/23 136/87/23 144/87/23 143/82/23
f 133/83/24 134/81/24 142/81/24 141/83/24
f 136/87/25 133/83/25 141/83/25 144/87/25
f 138/91/22 137/92/22 141/83/22 142/81/22
f 139/89/22 138/91/22 142/81/22 143/82/22
f 140/90/22 139/89/22 143/82/22 144/87/22
f 137/92/22 140/90/22 144/87/22 141/83/22
f 147/93/23 148/94/23 160/94/23 159/93/23
f 137/92/24 138/91/24 150/91/24 149/92/24
f 140/90/25 137/92/25 149/92/25 152/90/25
f 138/91/21 139/89/21 151/89/21 150/91/21
f 146/95/22 145/96/22 149/92/22 150/91/22
f 147/93/22 146/95/22 150/91/22 151/89/22
f 148/94/22 147/93/22 151/89/22 152/90/22
f 145/96/22 148/94/22 152/90/22 149/92/22
f 154/97/22 155/98/22 156/99/22 153/100/22
f 145/96/24 146/95/24 158/95/24 157/96/24
f 148/94/25 145/96/25 157/96/25 160/94/25
f 146/95/21 147/93/21 159/93/21 158/95/21
f 154/97/22 153/100/22 157/96/22 158/95/22
f 155/98/22 154/97/22 158/95/22 159/93/22
f 156/99/22 155/98/22 159/93/22 160/94/22
f 153/100/22 156/99/22 160/94/22 157/96/22
o Plane.005
v -1.000000 1.349907 -1.000000
v -1.000000 3.349906 -1.000000
v 1.000000 1.349907 -1.000000
v 1.000000 3.349906 -1.000000
v 0.756782 1.593124 -1.000000
v -0.756782 1.593124 -1.000000
v -0.756782 3.106689 -1.000000
v 0.756782 3.106689 -1.000000
v 0.663959 1.685948 -0.870609
v -0.663959 1.685948 -0.870609
v -0.663959 3.013865 -0.870609
v 0.663959 3.013865 -0.870609
v 0.756782 1.593124 -0.870609
v -0.756782 1.593124 -0.870609
v -0.756782 3.106689 -0.870609
v 0.756782 3.106689 -0.870609
v 0.599246 1.750660 -0.746384
v -0.599246 1.750660 -0.746384
v -0.599246 2.949153 -0.746384
v 0.599246 2.949153 -0.746384
v 0.663959 1.685948 -0.746384
v -0.663959 1.685948 -0.746384
v -0.663959 3.013865 -0.746384
v 0.663959 3.013865 -0.746384
v 0.544644 1.805262 -0.607214
v -0.544645 1.805262 -0.607213
v -0.544644 2.894551 -0.607213
v 0.544645 2.894551 -0.607214
v 0.599246 1.750660 -0.607214
v -0.599246 1.750660 -0.607213
v -0.599246 2.949153 -0.607213
v 0.599246 2.949153 -0.607214
vn 1.0000 -0.0000 -0.0000
vn -0.0000 -0.0000 -1.0000
vn -0.0000 -1.0000 -0.0000
vn -0.0000 1.0000 -0.0000
vn -1.0000 -0.0000 -0.0000
vt 0.121609 0.121609
vt 0.878391 0.121609
vt 0.121609 0.878391
vt 0.000000 1.000000
vt 0.000000 0.000000
vt 1.000000 0.000000
vt 0.878391 0.878391
vt 1.000000 1.000000
vt 0.831980 0.168021
vt 0.831980 0.831980
vt 0.168021 0.168021
vt 0.168021 0.831980
vt 0.799623 0.200377
vt 0.799623 0.799623
vt 0.200377 0.200377
vt 0.200377 0.799623
vt 0.227678 0.227678
vt 0.772322 0.227678
vt 0.772322 0.772322
vt 0.227678 0.772322
s 1
usemtl Material.002
f 166/101/26 167/102/26 175/102/26 174/101/26
f 166/101/27 165/103/27 163/104/27 161/105/27
f 167/102/27 166/101/27 161/105/27 162/106/27
f 168/107/27 167/102/27 162/106/27 164/108/27
f 165/103/27 168/107/27 164/108/27 163/104/27
f 171/109/28 172/110/28 184/110/28 183/109/28
f 167/102/28 168/107/28 176/107/28 175/102/28
f 165/103/29 166/101/29 174/101/29 173/103/29
f 168/107/30 165/103/30 173/103/30 176/107/30
f 170/111/27 169/112/27 173/103/27 174/101/27
f 171/109/27 170/111/27 174/101/27 175/102/27
f 172/110/27 171/109/27 175/102/27 176/107/27
f 169/112/27 172/110/27 176/107/27 173/103/27
f 179/113/28 180/114/28 192/114/28 191/113/28
f 169/112/29 170/111/29 182/111/29 181/112/29
f 172/110/30 169/112/30 181/112/30 184/110/30
f 170/111/26 171/109/26 183/109/26 182/111/26
f 178/115/27 177/116/27 181/112/27 182/111/27
f 179/113/27 178/115/27 182/111/27 183/109/27
f 180/114/27 179/113/27 183/109/27 184/110/27
f 177/116/27 180/114/27 184/110/27 181/112/27
f 186/117/27 187/118/27 188/119/27 185/120/27
f 177/116/29 178/115/29 190/115/29 189/116/29
f 180/114/30 177/116/30 189/116/30 192/114/30
f 178/115/26 179/113/26 191/113/26 190/115/26
f 186/117/27 185/120/27 189/116/27 190/115/27
f 187/118/27 186/117/27 190/115/27 191/113/27
f 188/119/27 187/118/27 191/113/27 192/114/27
f 185/120/27 188/119/27 192/114/27 189/116/27
